<svg height='100px' width='100px'  fill="#333333" xmlns="http://www.w3.org/2000/svg" xmlns:xlink="http://www.w3.org/1999/xlink" version="1.1" x="0px" y="0px" viewBox="0 0 512 512" style="enable-background:new 0 0 512 512;" xml:space="preserve"><g><path d="M256,391.9c6.6,0,12-5.4,12-12V250.6c0-6.6-5.4-12-12-12s-12,5.4-12,12v129.3   C244,386.6,249.4,391.9,256,391.9z"></path><path d="M292.5,22h-73.1C196.3,22,177,40.6,177,63.8V67H98.1C80.5,67,66,81.8,66,99.4v54   c0,17.6,14.5,31.6,32.1,31.6h3.6l0.5,253c0.1,28.6,23.4,52,52,52h203.5c28.6,0,51.9-23.4,52-52l0.5-253h3.6   c17.6,0,32.1-13.9,32.1-31.6v-54c0-17.6-14.5-32.4-32.1-32.4H335v-3.2C335,40.6,315.7,22,292.5,22z M201,63.8   c0-9.9,8.5-17.8,18.5-17.8h73.1c9.9,0,18.5,7.9,18.5,17.8V67H201V63.8z M385.7,437.9c0,15.4-12.6,28.1-28,28.1H154.3   c-15.4,0-28-12.6-28-28.1L125.8,185h260.5L385.7,437.9z M422,153c0,4.4-3.6,8-8,8H98c-4.4,0-8-3.6-8-8V99c0-4.4,3.6-8,8-8h316   c4.4,0,8,3.6,8,8V153z"></path><path d="M187,391.9c6.6,0,12-5.4,12-12V250.6c0-6.6-5.4-12-12-12s-12,5.4-12,12v129.3   C175,386.6,180.4,391.9,187,391.9z"></path><path d="M325,391.9c6.6,0,12-5.4,12-12V250.6c0-6.6-5.4-12-12-12s-12,5.4-12,12v129.3   C313,386.6,318.4,391.9,325,391.9z"></path></g></svg>